<?xml version="1.0" encoding="UTF-8"?>
<svg id="Layer_1" data-name="Layer 1" xmlns="http://www.w3.org/2000/svg" viewBox="0 0 60 60">
  <defs>
    <style>
      .cls-1 {
        fill: none;
        stroke: #000;
        stroke-miterlimit: 10;
      }
    </style>
  </defs>
  <rect class="cls-1" x=".5" y=".5" width="59" height="59" rx="8.66" ry="8.66"/>
  <g>
    <path class="cls-1" d="M16.65,29.56c1.88-1.75,3.76-3.51,5.64-5.26.52-.48,1.6-1.33,3.1-1.49.38-.04.72-.03,1.03,0l8.7-.1c.09,0,.17.03.24.09l8.16,6.66c.43.62.5,1.41.19,1.98-.44.79-1.59,1.11-2.54.5l-5.6-5.12c-.26-.24-.67-.03-.65.34l.24,4.98c.1.32.23.65.38.99.92,2.08,2.36,3.44,3.48,4.27.16.07,1.49.72,1.79,2.18.28,1.39-.49,2.95-1.93,3.65-.03.01-.05.03-.08.05l-3.91,3.54c-.86.72-2.03.72-2.73.1-.87-.77-.95-2.44.09-3.47l2.8-2.62c.25-.23.13-.66-.19-.72-1.27-.25-2.82-.45-4.58-.43-1.78.02-3.34.25-4.61.54-.29.07-.4.45-.2.69l2.61,3.05c.43.51.58.91.57,1.34,0,.48-.12,1.09-.53,1.53-.82.87-2.58.85-3.85-.5-1.63-1.69-3.26-3.37-4.89-5.06-.1-.15-.58-.93-.38-1.88.22-.58.5-1.25,1.62-1.86.38-.21.69-.53.92-.91.97-1.64,1.81-3.05,2.76-4.67.36-.61.56-1.31.57-2.03l.04-2.71c0-.36-.39-.55-.65-.33l-5.04,4.43-.67.6c-.29.26-.7.29-1.02.09l-.75-.46"/>
    <path class="cls-1" d="M17.37,28.95c-.78.38-1.08,1-1.04,1.65.02.38.1.7,1.15,1.33"/>
    <path class="cls-1" d="M23.37,33.48c4.2-.02,8.39-.04,12.59-.06"/>
    <path class="cls-1" d="M25.58,47.17c-.35-.93-.14-2.02.49-2.66.69-.69,1.74-.7,2.47,0"/>
    <path class="cls-1" d="M31.56,44.43c.67-.59,1.65-.63,2.38-.1.79.58,1.12,1.69.76,2.63"/>
    <path class="cls-1" d="M23.91,23.48c1.76,3.08,3.51,6.16,5.27,9.25.41.72,1.48.71,1.87-.02l5-9.37"/>
    <ellipse class="cls-1" cx="30.06" cy="16.49" rx="4.66" ry="4.61"/>
    <path class="cls-1" d="M29.91,32.76c.06,2.36.12,4.73.17,7.09"/>
    <path class="cls-1" d="M34.95,40.47c.45-.11,1.94-.5,1.35-.34"/>
    <path class="cls-1" d="M21.89,35.3c1.85,1.54,3.7,3.08,5.55,4.61"/>
    <path class="cls-1" d="M37.39,35.4c-1.46,1.55-2.93,3.09-4.39,4.64"/>
    <path class="cls-1" d="M25.53,40.62c-.44-.14-1.92-.59-1.33-.42"/>
    <path class="cls-1" d="M28.25,20.73c-.04.75-.09,1.5-.13,2.26"/>
    <path class="cls-1" d="M32.13,20.41c-.01.79-.02,1.57-.04,2.36"/>
  </g>
</svg>