<?xml version="1.0" encoding="UTF-8"?>
<svg xmlns="http://www.w3.org/2000/svg" version="1.1" viewBox="0 0 48 48">
  <defs>
    <style>
      .cls-1 {
        fill: #387f39;
      }
    </style>
  </defs>
  <!-- Generator: Adobe Illustrator 28.6.0, SVG Export Plug-In . SVG Version: 1.2.0 Build 709)  -->
  <g>
    <g id="_Шар_1" data-name="Шар_1">
      <path class="cls-1" d="M16.6,41.4L1.6,26.4c-.8-.8-.8-2,0-2.8l4-4c.8-.8,2-.8,2.8,0l15,15c.8.8.8,2,0,2.8l-4,4c-.8.8-2,.8-2.8,0Z"/>
      <path class="cls-1" d="M12.6,34.6L39.6,7.6c.8-.8,2-.8,2.8,0l4,4c.8.8.8,2,0,2.8l-27,27c-.8.8-2,.8-2.8,0l-4-4c-.8-.8-.8-2,0-2.8Z"/>
    </g>
  </g>
</svg>