<?xml version="1.0" encoding="utf-8"?>
<!-- Generator: Adobe Illustrator 28.1.0, SVG Export Plug-In . SVG Version: 6.00 Build 0)  -->
<svg version="1.1" id="Layer_1" xmlns="http://www.w3.org/2000/svg" xmlns:xlink="http://www.w3.org/1999/xlink" x="0px" y="0px"
	 viewBox="0 0 90.2 68" style="enable-background:new 0 0 90.2 68;" xml:space="preserve">
<style type="text/css">
	.st0{fill:none;stroke:#000000;stroke-miterlimit:10;}
	.st1{fill:#409FFF;}
	.st2{opacity:0.84;}
	.st3{fill:#39AFEA;}
	.st4{opacity:0.4;fill:none;stroke:#000000;stroke-width:0.5;stroke-miterlimit:10;enable-background:new    ;}
</style>
<g>
	<g id="Layer_1_00000152238645242387009630000003378170601682600888_">
		<circle class="st0" cx="55.7" cy="43.2" r="4.5"/>
		<path class="st0" d="M40.3,44.9c0,1.8-1.5,3.3-3.3,3.3c-2,0-3.3-1.9-3.3-3.3c0-0.5,0.1-0.9,0.2-1.2c0.6-1.3,1.8-2.1,3.1-2.1
			C38.7,41.6,40.3,43,40.3,44.9z"/>
		<path class="st0" d="M59.8,22.7c-3.3,0.2-10.5,1.1-16.7,6.1c-2.4,1.9-4,4-4.5,4.7c-2.9,3.9-4.1,7.8-4.7,10.1"/>
		<path class="st0" d="M31.2,33.7h17.7"/>
		<path class="st0" d="M53.2,18.6c-1.8,6.6-3.7,13.2-5.5,19.9"/>
		<path class="st0" d="M40.2,18.6c3.3,3.9,6.7,7.8,10,11.8"/>
		<path class="st0" d="M51.6,40.6c-4.4-2.4-8.8-4.8-13.2-7.2"/>
		<path class="st0" d="M40.2,19c0.8-0.6,1.8-1.2,2.9-1.6c4.6-1.6,8.6,0.5,10.3,1.6"/>
		<path class="st0" d="M26.1,4.6H68c4.8,0,8.7,3.9,8.7,8.7v41.8c0,4.8-3.9,8.7-8.7,8.7H26.1c-4.8,0-8.7-3.9-8.7-8.7V13.3
			C17.5,8.5,21.4,4.6,26.1,4.6z"/>
		<g>
			
				<image style="overflow:visible;opacity:0.78;enable-background:new    ;" width="42" height="43" xlink:href="F2F6F0613B15D852.png"  transform="matrix(1 0 0 1 9.0679 -3.695)">
			</image>
			<g>
				<path class="st1" d="M25.4,15.4c0,0-0.1-0.3-0.1-0.5c0,0,0,0,0,0c0-0.1,0.1-0.2,0.2-0.2c0.1,0,0.2,0,0.2,0c0,0,0.1,0.1,0.2,0.4
					c0.1,0.3,0.1,0.5,0.1,0.5c0,0.1,0,0.1,0.1,0.2c0.1,0,0.3,0.1,0.5,0.2c0.3,0.2,0,0.1,0.1,0.1s0,0,0,0c0,0,0-0.1,0-0.1
					c0-0.2-0.1-0.4-0.2-0.7c-0.1-0.2-0.1-0.2-0.1-0.3c0-0.1,0-0.2,0.1-0.3c0.1-0.1,0.2,0,0.3,0c0.1,0.1,0.1,0.2,0.2,0.2
					c0.3,0.8,0.4,0.9,0.4,1.5c0,0,0,0.1,0,0.1c0,0,0,0,0,0c0.3,0.2,0.5,0.4,0.6,0.3c0,0,0-0.1,0-0.3c-0.1-0.3-0.1-0.4,0-0.4
					c0.1-0.1,0.3-0.1,0.4,0c0.1,0,0.1,0.1,0.1,0.1c0.1,0.1,0.1,0.2,0.1,0.3c0,0,0,0.2,0.1,0.5c0,0.2,0.2,0.4,0.8,0.5
					c0,0,0.1,0,0.1-0.1c0-0.2,0-0.6,0-0.7c0,0,0,0,0,0c-0.2-0.2-0.5-0.5-0.8-0.7c0,0,0,0,0,0c-0.1-0.1,0-0.2,0-0.3
					c0.1-0.1,0.2-0.1,0.4,0l0.3,0.2c0,0,0.1,0,0.1,0v-0.5c0,0,0,0,0,0c-0.5-0.4-0.9-0.8-1.3-1.2c0,0,0,0,0,0c-0.1-0.1,0-0.3,0-0.3
					c0.1-0.1,0.3,0,0.4,0c0.1,0,0.2,0.1,0.2,0.1c0.4,0.4,0.6,0.7,0.7,0.7c0,0,0.1-0.1,0-0.6c-0.2-0.2-0.4-0.4-0.6-0.6
					c-0.2-0.1-0.3-0.2-0.3-0.3c0-0.1,0.2-0.2,0.4-0.1c0,0,0,0,0,0c0.1,0.1,0.2,0.1,0.3,0.2c0,0,0.1,0,0.1,0l0-0.6c0,0,0,0,0,0
					c0,0,0.2-0.1,0.3-0.1c0.2,0,0.3,0.2,0.3,0.3c0,0.2,0,0.4,0,0.5l0,0c0,0.1,0.1,0.1,0.1,0l0.4-0.3c0,0,0,0,0,0c0.1,0,0.2,0,0.2,0
					c0.1,0,0.1,0.2,0.1,0.3c0,0,0,0,0,0c-0.1,0.1-0.7,0.6-0.8,0.7c0,0,0,0,0,0c0,0.2,0,0.4,0,0.5c0,0,0.1,0.1,0.1,0
					c0.2-0.1,0.3-0.3,0.8-0.6c0.1-0.1,0.2-0.1,0.3-0.2c0.1,0,0.3,0.1,0.3,0.2c0,0.1,0,0.1-0.3,0.4c-0.4,0.4-0.8,0.6-1.1,0.9
					c0,0.2,0,0.4,0,0.6c0.1-0.1,0.2-0.2,0.5-0.3c0.1,0,0.2,0,0.3,0c0.1,0.1,0.1,0.2,0.1,0.3c0,0.1-0.2,0.2-0.3,0.3
					c-0.2,0.1-0.3,0.2-0.6,0.5c0,0.3,0,0.6,0,0.9c0.3-0.1,0.6-0.3,0.9-0.5l0.2-0.7c-0.1-0.2,0.1-0.4,0.2-0.4c0.1,0,0.2,0.1,0.2,0.3
					c0,0.1,0,0.3-0.1,0.5c0.2-0.1,0.4-0.2,0.7-0.4l0.5-1.4c-0.1-0.2,0.1-0.4,0.3-0.4c0.1,0,0.2,0.1,0.2,0.3
					c-0.1,0.4-0.2,0.8-0.3,1.2c0.2-0.1,0.5-0.2,0.7-0.4l0.2-0.7c-0.1-0.2,0.1-0.4,0.2-0.3c0.1,0,0.2,0.1,0.2,0.3
					c0,0.1-0.1,0.3-0.1,0.4c0.2-0.1,0.5-0.2,0.8-0.3c0.1,0,0.2,0,0.2,0.1c0.1,0.1,0,0.3-0.1,0.4c-0.2,0.1-0.4,0.2-0.6,0.3
					c0.2,0.1,0.4,0.1,0.6,0.2c0.1,0.1,0.2,0.2,0.1,0.3c-0.1,0.2-0.4,0.2-0.6,0l-0.8-0.1l-0.6,0.3c0.4,0.1,0.8,0.2,1.3,0.4
					c0.2,0,0.3,0.2,0.2,0.3c0,0.2-0.4,0.3-0.6,0l-1.6-0.3c-0.2,0.1-0.5,0.2-0.7,0.4l0.6,0.1c0.1,0.1,0.1,0.2,0.1,0.3
					c-0.1,0.2-0.4,0.2-0.6,0l-0.8-0.1c-0.2,0.1-0.5,0.3-0.8,0.4l0.8,0.4l0.7-0.1c0.2-0.2,0.5-0.1,0.6,0c0,0.1,0,0.2-0.1,0.3
					l-0.5,0.1l0.6,0.4c0.6-0.1,1.3-0.3,1.9-0.4c0.2,0,0.3,0.1,0.3,0.2c0,0.1-0.1,0.3-0.3,0.3c-0.4,0.1-0.9,0.2-1.3,0.3
					c0.2,0.1,0.5,0.2,0.7,0.4l0.7-0.1c0.3-0.2,0.6-0.1,0.6,0c0,0.1,0,0.2-0.1,0.3c-0.2,0-0.3,0.1-0.5,0.1c0.2,0.1,0.4,0.2,0.6,0.4
					c0.1,0.1,0.2,0.3,0.1,0.4c-0.1,0.1-0.3,0.1-0.6,0l-0.4-0.2c0,0.2,0.1,0.3,0.1,0.5c0,0.1-0.1,0.2-0.2,0.2c-0.1,0-0.3,0-0.4-0.2
					c-0.1-0.3-0.2-0.6-0.2-0.9c-0.2-0.1-0.4-0.2-0.6-0.4l0.3,1.2c0,0.1-0.1,0.2-0.2,0.2c-0.1,0-0.3-0.1-0.4-0.2
					c-0.2-0.5-0.3-1-0.5-1.6l-0.6-0.3c0,0.2,0.1,0.4,0.1,0.6c0,0-0.1,0.1-0.2,0.1c-0.1,0-0.2-0.1-0.3-0.2c-0.1-0.3-0.2-0.6-0.3-0.9
					c-0.2-0.1-0.5-0.3-0.8-0.4c0,0.3,0,0.6,0,0.8c0.3,0.2,0.5,0.5,0.8,0.7c0,0.1,0,0.2-0.1,0.3c-0.1,0.1-0.3,0-0.4-0.1
					c-0.1-0.1-0.2-0.2-0.3-0.3v0.7c0.5,0.4,0.9,0.9,1.4,1.3c0,0.1,0,0.2-0.1,0.3c-0.1,0.1-0.4,0-0.5-0.2c-0.3-0.2-0.5-0.5-0.8-0.7
					c0,0.2,0,0.5,0,0.8c0.3,0.2,0.5,0.5,0.8,0.7c0,0,0,0.2-0.1,0.2c-0.1,0.1-0.3,0-0.5-0.1c-0.1-0.1-0.2-0.1-0.2-0.2
					c0,0.2,0,0.5,0,0.8c0,0-0.1,0.1-0.2,0.1c-0.1,0-0.3-0.1-0.3-0.2v-0.6c-0.2,0.1-0.3,0.2-0.5,0.3c0,0-0.2,0-0.3-0.1
					s-0.1-0.3,0.1-0.4c0.2-0.2,0.4-0.4,0.6-0.6v-0.7c-0.3,0.3-0.7,0.6-1,0.9c-0.1,0.1-0.3,0-0.4,0c-0.1-0.1,0-0.4,0.3-0.5l1-1
					c0-0.3,0-0.5,0-0.8c-0.2,0.1-0.3,0.3-0.5,0.4c-0.1,0-0.2,0-0.3,0c-0.1-0.1-0.1-0.3,0.1-0.4c0.2-0.2,0.4-0.4,0.6-0.6
					c0-0.3,0-0.6,0-0.9l-0.8,0.5c-0.1,0.3-0.2,0.6-0.3,1c-0.1,0.1-0.2,0.1-0.3,0c-0.1,0-0.2-0.2-0.2-0.3l0.2-0.5
					c-0.2,0.1-0.5,0.2-0.7,0.4c-0.2,0.6-0.3,1.2-0.5,1.7c-0.1,0.1-0.2,0.1-0.3,0.1c-0.1,0-0.2-0.2-0.2-0.3c0.1-0.4,0.2-0.8,0.3-1.1
					c-0.2,0.1-0.4,0.2-0.6,0.3c-0.1,0.3-0.1,0.6-0.2,0.9c0,0.1-0.2,0.2-0.3,0.2c-0.2,0-0.3-0.1-0.3-0.3l0.1-0.4
					c-0.2,0.1-0.5,0.2-0.7,0.3c-0.1,0-0.2,0-0.3-0.1c-0.1-0.1,0-0.3,0.2-0.4c0.2-0.1,0.3-0.2,0.5-0.3c-0.2,0-0.4-0.1-0.6-0.2
					c-0.1-0.1-0.2-0.2-0.1-0.3c0.1-0.2,0.3-0.2,0.5,0l0.8,0.1l0.7-0.4c-0.4-0.1-0.9-0.2-1.3-0.3c-0.2-0.1-0.2-0.2-0.2-0.3
					c0.1-0.1,0.4-0.2,0.6,0l1.5,0.3l0.6-0.3l-0.5-0.2c-0.1-0.1-0.1-0.2-0.1-0.3c0.1-0.1,0.3-0.2,0.5,0l0.9,0.1l0.8-0.4
					c-0.2-0.1-0.5-0.3-0.7-0.4c-0.4,0.1-0.7,0.1-1.1,0.2c-0.2,0-0.3-0.1-0.3-0.2c0-0.1,0.1-0.3,0.3-0.3c0.1,0,0.2,0,0.3-0.1
					c-0.2-0.1-0.4-0.2-0.7-0.4c-0.6,0.1-1.2,0.3-1.8,0.4c-0.2,0-0.3-0.1-0.3-0.2c0-0.1,0.1-0.3,0.2-0.3c0.3-0.1,0.7-0.2,1-0.3
					c0,0,0.1-0.1,0-0.1c-0.2-0.1-0.4-0.2-0.5-0.3c-0.3,0.1-0.7,0.2-1,0.2c-0.1,0-0.2-0.1-0.2-0.2c0-0.1,0.1-0.2,0.3-0.2
					c0.1,0,0.2-0.1,0.4-0.2c-0.2-0.1-0.4-0.2-0.6-0.3c-0.2-0.1-0.2-0.3-0.2-0.4c0.1-0.1,0.3-0.1,0.5,0
					C25.2,15.3,25.3,15.4,25.4,15.4L25.4,15.4z"/>
				<g>
					<g class="st2">
						<path class="st3" d="M25.4,15.4c0,0-0.1-0.3-0.1-0.5c0,0,0,0,0,0c0-0.1,0.1-0.2,0.2-0.2c0.1,0,0.2,0,0.2,0
							c0,0,0.1,0.1,0.2,0.4c0.1,0.3,0.1,0.5,0.1,0.5c0,0.1,0,0.1,0.1,0.2c0.1,0,0.3,0.1,0.5,0.2c0.3,0.2,0,0.1,0.1,0.1s0,0,0,0
							c0,0,0-0.1,0-0.1c0-0.2-0.1-0.4-0.2-0.7c-0.1-0.2-0.1-0.2-0.1-0.3c0-0.1,0-0.2,0.1-0.3c0.1-0.1,0.2,0,0.3,0
							c0.1,0.1,0.1,0.2,0.2,0.2c0.3,0.8,0.4,0.9,0.4,1.5c0,0,0,0.1,0,0.1c0,0,0,0,0,0c0.3,0.2,0.5,0.4,0.6,0.3c0,0,0-0.1,0-0.3
							c-0.1-0.3-0.1-0.4,0-0.4c0.1-0.1,0.3-0.1,0.4,0c0.1,0,0.1,0.1,0.1,0.1c0.1,0.1,0.1,0.2,0.1,0.3c0,0,0,0.2,0.1,0.5
							c0,0.2,0.2,0.4,0.8,0.5c0,0,0.1,0,0.1-0.1c0-0.2,0-0.6,0-0.7c0,0,0,0,0,0c-0.2-0.2-0.5-0.5-0.8-0.7c0,0,0,0,0,0
							c-0.1-0.1,0-0.2,0-0.3c0.1-0.1,0.2-0.1,0.4,0l0.3,0.2c0,0,0.1,0,0.1,0v-0.5c0,0,0,0,0,0c-0.5-0.4-0.9-0.8-1.3-1.2c0,0,0,0,0,0
							c-0.1-0.1,0-0.3,0-0.3c0.1-0.1,0.3,0,0.4,0c0.1,0,0.2,0.1,0.2,0.1c0.4,0.4,0.6,0.7,0.7,0.7c0,0,0.1-0.1,0-0.6
							c-0.2-0.2-0.4-0.4-0.6-0.6c-0.2-0.1-0.3-0.2-0.3-0.3c0-0.1,0.2-0.2,0.4-0.1c0,0,0,0,0,0c0.1,0.1,0.2,0.1,0.3,0.2
							c0,0,0.1,0,0.1,0l0-0.6c0,0,0,0,0,0c0,0,0.2-0.1,0.3-0.1c0.2,0,0.3,0.2,0.3,0.3c0,0.2,0,0.4,0,0.5l0,0c0,0.1,0.1,0.1,0.1,0
							l0.4-0.3c0,0,0,0,0,0c0.1,0,0.2,0,0.2,0c0.1,0,0.1,0.2,0.1,0.3c0,0,0,0,0,0c-0.1,0.1-0.7,0.6-0.8,0.7c0,0,0,0,0,0
							c0,0.2,0,0.4,0,0.5c0,0,0.1,0.1,0.1,0c0.2-0.1,0.3-0.3,0.8-0.6c0.1-0.1,0.2-0.1,0.3-0.2c0.1,0,0.3,0.1,0.3,0.2
							c0,0.1,0,0.1-0.3,0.4c-0.4,0.4-0.8,0.6-1.1,0.9c0,0.2,0,0.4,0,0.6c0.1-0.1,0.2-0.2,0.5-0.3c0.1,0,0.2,0,0.3,0
							c0.1,0.1,0.1,0.2,0.1,0.3c0,0.1-0.2,0.2-0.3,0.3c-0.2,0.1-0.3,0.2-0.6,0.5c0,0.3,0,0.6,0,0.9c0.3-0.1,0.6-0.3,0.9-0.5l0.2-0.7
							c-0.1-0.2,0.1-0.4,0.2-0.4c0.1,0,0.2,0.1,0.2,0.3c0,0.1,0,0.3-0.1,0.5c0.2-0.1,0.4-0.2,0.7-0.4l0.5-1.4
							c-0.1-0.2,0.1-0.4,0.3-0.4c0.1,0,0.2,0.1,0.2,0.3c-0.1,0.4-0.2,0.8-0.3,1.2c0.2-0.1,0.5-0.2,0.7-0.4l0.2-0.7
							c-0.1-0.2,0.1-0.4,0.2-0.3c0.1,0,0.2,0.1,0.2,0.3c0,0.1-0.1,0.3-0.1,0.4c0.2-0.1,0.5-0.2,0.8-0.3c0.1,0,0.2,0,0.2,0.1
							c0.1,0.1,0,0.3-0.1,0.4c-0.2,0.1-0.4,0.2-0.6,0.3c0.2,0.1,0.4,0.1,0.6,0.2c0.1,0.1,0.2,0.2,0.1,0.3c-0.1,0.2-0.4,0.2-0.6,0
							l-0.8-0.1l-0.6,0.3c0.4,0.1,0.8,0.2,1.3,0.4c0.2,0,0.3,0.2,0.2,0.3c0,0.2-0.4,0.3-0.6,0l-1.6-0.3c-0.2,0.1-0.5,0.2-0.7,0.4
							l0.6,0.1c0.1,0.1,0.1,0.2,0.1,0.3c-0.1,0.2-0.4,0.2-0.6,0l-0.8-0.1c-0.2,0.1-0.5,0.3-0.8,0.4l0.8,0.4l0.7-0.1
							c0.2-0.2,0.5-0.1,0.6,0c0,0.1,0,0.2-0.1,0.3l-0.5,0.1l0.6,0.4c0.6-0.1,1.3-0.3,1.9-0.4c0.2,0,0.3,0.1,0.3,0.2
							c0,0.1-0.1,0.3-0.3,0.3c-0.4,0.1-0.9,0.2-1.3,0.3c0.2,0.1,0.5,0.2,0.7,0.4l0.7-0.1c0.3-0.2,0.6-0.1,0.6,0c0,0.1,0,0.2-0.1,0.3
							c-0.2,0-0.3,0.1-0.5,0.1c0.2,0.1,0.4,0.2,0.6,0.4c0.1,0.1,0.2,0.3,0.1,0.4c-0.1,0.1-0.3,0.1-0.6,0l-0.4-0.2
							c0,0.2,0.1,0.3,0.1,0.5c0,0.1-0.1,0.2-0.2,0.2c-0.1,0-0.3,0-0.4-0.2c-0.1-0.3-0.2-0.6-0.2-0.9c-0.2-0.1-0.4-0.2-0.6-0.4
							l0.3,1.2c0,0.1-0.1,0.2-0.2,0.2c-0.1,0-0.3-0.1-0.4-0.2c-0.2-0.5-0.3-1-0.5-1.6l-0.6-0.3c0,0.2,0.1,0.4,0.1,0.6
							c0,0-0.1,0.1-0.2,0.1c-0.1,0-0.2-0.1-0.3-0.2c-0.1-0.3-0.2-0.6-0.3-0.9c-0.2-0.1-0.5-0.3-0.8-0.4c0,0.3,0,0.6,0,0.8
							c0.3,0.2,0.5,0.5,0.8,0.7c0,0.1,0,0.2-0.1,0.3c-0.1,0.1-0.3,0-0.4-0.1c-0.1-0.1-0.2-0.2-0.3-0.3v0.7c0.5,0.4,0.9,0.9,1.4,1.3
							c0,0.1,0,0.2-0.1,0.3c-0.1,0.1-0.4,0-0.5-0.2c-0.3-0.2-0.5-0.5-0.8-0.7c0,0.2,0,0.5,0,0.8c0.3,0.2,0.5,0.5,0.8,0.7
							c0,0,0,0.2-0.1,0.2c-0.1,0.1-0.3,0-0.5-0.1c-0.1-0.1-0.2-0.1-0.2-0.2c0,0.2,0,0.5,0,0.8c0,0-0.1,0.1-0.2,0.1
							c-0.1,0-0.3-0.1-0.3-0.2v-0.6c-0.2,0.1-0.3,0.2-0.5,0.3c0,0-0.2,0-0.3-0.1s-0.1-0.3,0.1-0.4c0.2-0.2,0.4-0.4,0.6-0.6v-0.7
							c-0.3,0.3-0.7,0.6-1,0.9c-0.1,0.1-0.3,0-0.4,0c-0.1-0.1,0-0.4,0.3-0.5l1-1c0-0.3,0-0.5,0-0.8c-0.2,0.1-0.3,0.3-0.5,0.4
							c-0.1,0-0.2,0-0.3,0c-0.1-0.1-0.1-0.3,0.1-0.4c0.2-0.2,0.4-0.4,0.6-0.6c0-0.3,0-0.6,0-0.9l-0.8,0.5c-0.1,0.3-0.2,0.6-0.3,1
							c-0.1,0.1-0.2,0.1-0.3,0c-0.1,0-0.2-0.2-0.2-0.3l0.2-0.5c-0.2,0.1-0.5,0.2-0.7,0.4c-0.2,0.6-0.3,1.2-0.5,1.7
							c-0.1,0.1-0.2,0.1-0.3,0.1c-0.1,0-0.2-0.2-0.2-0.3c0.1-0.4,0.2-0.8,0.3-1.1c-0.2,0.1-0.4,0.2-0.6,0.3
							c-0.1,0.3-0.1,0.6-0.2,0.9c0,0.1-0.2,0.2-0.3,0.2c-0.2,0-0.3-0.1-0.3-0.3l0.1-0.4c-0.2,0.1-0.5,0.2-0.7,0.3
							c-0.1,0-0.2,0-0.3-0.1c-0.1-0.1,0-0.3,0.2-0.4c0.2-0.1,0.3-0.2,0.5-0.3c-0.2,0-0.4-0.1-0.6-0.2c-0.1-0.1-0.2-0.2-0.1-0.3
							c0.1-0.2,0.3-0.2,0.5,0l0.8,0.1l0.7-0.4c-0.4-0.1-0.9-0.2-1.3-0.3c-0.2-0.1-0.2-0.2-0.2-0.3c0.1-0.1,0.4-0.2,0.6,0l1.5,0.3
							l0.6-0.3l-0.5-0.2c-0.1-0.1-0.1-0.2-0.1-0.3c0.1-0.1,0.3-0.2,0.5,0l0.9,0.1l0.8-0.4c-0.2-0.1-0.5-0.3-0.7-0.4
							c-0.4,0.1-0.7,0.1-1.1,0.2c-0.2,0-0.3-0.1-0.3-0.2c0-0.1,0.1-0.3,0.3-0.3c0.1,0,0.2,0,0.3-0.1c-0.2-0.1-0.4-0.2-0.7-0.4
							c-0.6,0.1-1.2,0.3-1.8,0.4c-0.2,0-0.3-0.1-0.3-0.2c0-0.1,0.1-0.3,0.2-0.3c0.3-0.1,0.7-0.2,1-0.3c0,0,0.1-0.1,0-0.1
							c-0.2-0.1-0.4-0.2-0.5-0.3c-0.3,0.1-0.7,0.2-1,0.2c-0.1,0-0.2-0.1-0.2-0.2c0-0.1,0.1-0.2,0.3-0.2c0.1,0,0.2-0.1,0.4-0.2
							c-0.2-0.1-0.4-0.2-0.6-0.3c-0.2-0.1-0.2-0.3-0.2-0.4c0.1-0.1,0.3-0.1,0.5,0C25.2,15.3,25.3,15.4,25.4,15.4L25.4,15.4z"/>
					</g>
				</g>
			</g>
		</g>
		<rect x="39.9" y="18.6" transform="matrix(0.7626 -0.6469 0.6469 0.7626 -2.7241 30.4427)" width="0.4" height="0.7"/>
		<path class="st4" d="M32.6,35.6c-1.2,0.5-2.4-0.1-2.8-0.9c-0.4-0.9,0.3-2.3,1.7-2.6c1.1,0-0.3,0,2.1-0.1c0.3-0.1,1.9-0.1,2.3-0.3
			c0.6-0.3,1.2-0.7,2.1-1.5c0.8-0.7,1.2-1.2,1.5-1.5c0.7-0.7,1.7-1.6,3.5-2.3"/>
		<g>
			
				<image style="overflow:visible;opacity:0.78;enable-background:new    ;" width="43" height="43" xlink:href="F2F6F0613B15D856.png"  transform="matrix(0.9767 0 0 0.9767 8.8879 -2.755)">
			</image>
			<g>
				<path class="st1" d="M25.4,15.4c0,0-0.1-0.3-0.1-0.5c0,0,0,0,0,0c0-0.1,0.1-0.2,0.2-0.2c0.1,0,0.2,0,0.2,0c0,0,0.1,0.1,0.2,0.4
					c0.1,0.3,0.1,0.5,0.1,0.5c0,0.1,0,0.1,0.1,0.2c0.1,0,0.3,0.1,0.5,0.2c0.3,0.2,0,0.1,0.1,0.1s0,0,0,0c0,0,0-0.1,0-0.1
					c0-0.2-0.1-0.4-0.2-0.7c-0.1-0.2-0.1-0.2-0.1-0.3c0-0.1,0-0.2,0.1-0.3c0.1-0.1,0.2,0,0.3,0c0.1,0.1,0.1,0.2,0.2,0.2
					c0.3,0.8,0.4,0.9,0.4,1.5c0,0,0,0.1,0,0.1c0,0,0,0,0,0c0.3,0.2,0.5,0.4,0.6,0.3c0,0,0-0.1,0-0.3c-0.1-0.3-0.1-0.4,0-0.4
					c0.1-0.1,0.3-0.1,0.4,0c0.1,0,0.1,0.1,0.1,0.1c0.1,0.1,0.1,0.2,0.1,0.3c0,0,0,0.2,0.1,0.5c0,0.2,0.2,0.4,0.8,0.5
					c0,0,0.1,0,0.1-0.1c0-0.2,0-0.6,0-0.7c0,0,0,0,0,0c-0.2-0.2-0.5-0.5-0.8-0.7c0,0,0,0,0,0c-0.1-0.1,0-0.2,0-0.3
					c0.1-0.1,0.2-0.1,0.4,0l0.3,0.2c0,0,0.1,0,0.1,0v-0.5c0,0,0,0,0,0c-0.5-0.4-0.9-0.8-1.3-1.2c0,0,0,0,0,0c-0.1-0.1,0-0.3,0-0.3
					c0.1-0.1,0.3,0,0.4,0c0.1,0,0.2,0.1,0.2,0.1c0.4,0.4,0.6,0.7,0.7,0.7c0,0,0.1-0.1,0-0.6c-0.2-0.2-0.4-0.4-0.6-0.6
					c-0.2-0.1-0.3-0.2-0.3-0.3c0-0.1,0.2-0.2,0.4-0.1c0,0,0,0,0,0c0.1,0.1,0.2,0.1,0.3,0.2c0,0,0.1,0,0.1,0l0-0.6c0,0,0,0,0,0
					c0,0,0.2-0.1,0.3-0.1c0.2,0,0.3,0.2,0.3,0.3c0,0.2,0,0.4,0,0.5l0,0c0,0.1,0.1,0.1,0.1,0l0.4-0.3c0,0,0,0,0,0c0.1,0,0.2,0,0.2,0
					c0.1,0,0.1,0.2,0.1,0.3c0,0,0,0,0,0c-0.1,0.1-0.7,0.6-0.8,0.7c0,0,0,0,0,0c0,0.2,0,0.4,0,0.5c0,0,0.1,0.1,0.1,0
					c0.2-0.1,0.3-0.3,0.8-0.6c0.1-0.1,0.2-0.1,0.3-0.2c0.1,0,0.3,0.1,0.3,0.2c0,0.1,0,0.1-0.3,0.4c-0.4,0.4-0.8,0.6-1.1,0.9
					c0,0.2,0,0.4,0,0.6c0.1-0.1,0.2-0.2,0.5-0.3c0.1,0,0.2,0,0.3,0c0.1,0.1,0.1,0.2,0.1,0.3c0,0.1-0.2,0.2-0.3,0.3
					c-0.2,0.1-0.3,0.2-0.6,0.5c0,0.3,0,0.6,0,0.9c0.3-0.1,0.6-0.3,0.9-0.5l0.2-0.7c-0.1-0.2,0.1-0.4,0.2-0.4c0.1,0,0.2,0.1,0.2,0.3
					c0,0.1,0,0.3-0.1,0.5c0.2-0.1,0.4-0.2,0.7-0.4l0.5-1.4c-0.1-0.2,0.1-0.4,0.3-0.4c0.1,0,0.2,0.1,0.2,0.3
					c-0.1,0.4-0.2,0.8-0.3,1.2c0.2-0.1,0.5-0.2,0.7-0.4l0.2-0.7c-0.1-0.2,0.1-0.4,0.2-0.3c0.1,0,0.2,0.1,0.2,0.3
					c0,0.1-0.1,0.3-0.1,0.4c0.2-0.1,0.5-0.2,0.8-0.3c0.1,0,0.2,0,0.2,0.1c0.1,0.1,0,0.3-0.1,0.4c-0.2,0.1-0.4,0.2-0.6,0.3
					c0.2,0.1,0.4,0.1,0.6,0.2c0.1,0.1,0.2,0.2,0.1,0.3c-0.1,0.2-0.4,0.2-0.6,0l-0.8-0.1l-0.6,0.3c0.4,0.1,0.8,0.2,1.3,0.4
					c0.2,0,0.3,0.2,0.2,0.3c0,0.2-0.4,0.3-0.6,0l-1.6-0.3c-0.2,0.1-0.5,0.2-0.7,0.4l0.6,0.1c0.1,0.1,0.1,0.2,0.1,0.3
					c-0.1,0.2-0.4,0.2-0.6,0l-0.8-0.1c-0.2,0.1-0.5,0.3-0.8,0.4l0.8,0.4l0.7-0.1c0.2-0.2,0.5-0.1,0.6,0c0,0.1,0,0.2-0.1,0.3
					l-0.5,0.1l0.6,0.4c0.6-0.1,1.3-0.3,1.9-0.4c0.2,0,0.3,0.1,0.3,0.2c0,0.1-0.1,0.3-0.3,0.3c-0.4,0.1-0.9,0.2-1.3,0.3
					c0.2,0.1,0.5,0.2,0.7,0.4l0.7-0.1c0.3-0.2,0.6-0.1,0.6,0c0,0.1,0,0.2-0.1,0.3c-0.2,0-0.3,0.1-0.5,0.1c0.2,0.1,0.4,0.2,0.6,0.4
					c0.1,0.1,0.2,0.3,0.1,0.4c-0.1,0.1-0.3,0.1-0.6,0l-0.4-0.2c0,0.2,0.1,0.3,0.1,0.5c0,0.1-0.1,0.2-0.2,0.2c-0.1,0-0.3,0-0.4-0.2
					c-0.1-0.3-0.2-0.6-0.2-0.9c-0.2-0.1-0.4-0.2-0.6-0.4l0.3,1.2c0,0.1-0.1,0.2-0.2,0.2c-0.1,0-0.3-0.1-0.4-0.2
					c-0.2-0.5-0.3-1-0.5-1.6l-0.6-0.3c0,0.2,0.1,0.4,0.1,0.6c0,0-0.1,0.1-0.2,0.1c-0.1,0-0.2-0.1-0.3-0.2c-0.1-0.3-0.2-0.6-0.3-0.9
					c-0.2-0.1-0.5-0.3-0.8-0.4c0,0.3,0,0.6,0,0.8c0.3,0.2,0.5,0.5,0.8,0.7c0,0.1,0,0.2-0.1,0.3c-0.1,0.1-0.3,0-0.4-0.1
					c-0.1-0.1-0.2-0.2-0.3-0.3v0.7c0.5,0.4,0.9,0.9,1.4,1.3c0,0.1,0,0.2-0.1,0.3c-0.1,0.1-0.4,0-0.5-0.2c-0.3-0.2-0.5-0.5-0.8-0.7
					c0,0.2,0,0.5,0,0.8c0.3,0.2,0.5,0.5,0.8,0.7c0,0,0,0.2-0.1,0.2c-0.1,0.1-0.3,0-0.5-0.1c-0.1-0.1-0.2-0.1-0.2-0.2
					c0,0.2,0,0.5,0,0.8c0,0-0.1,0.1-0.2,0.1c-0.1,0-0.3-0.1-0.3-0.2v-0.6c-0.2,0.1-0.3,0.2-0.5,0.3c0,0-0.2,0-0.3-0.1
					s-0.1-0.3,0.1-0.4c0.2-0.2,0.4-0.4,0.6-0.6v-0.7c-0.3,0.3-0.7,0.6-1,0.9c-0.1,0.1-0.3,0-0.4,0c-0.1-0.1,0-0.4,0.3-0.5l1-1
					c0-0.3,0-0.5,0-0.8c-0.2,0.1-0.3,0.3-0.5,0.4c-0.1,0-0.2,0-0.3,0c-0.1-0.1-0.1-0.3,0.1-0.4c0.2-0.2,0.4-0.4,0.6-0.6
					c0-0.3,0-0.6,0-0.9l-0.8,0.5c-0.1,0.3-0.2,0.6-0.3,1c-0.1,0.1-0.2,0.1-0.3,0c-0.1,0-0.2-0.2-0.2-0.3l0.2-0.5
					c-0.2,0.1-0.5,0.2-0.7,0.4c-0.2,0.6-0.3,1.2-0.5,1.7c-0.1,0.1-0.2,0.1-0.3,0.1c-0.1,0-0.2-0.2-0.2-0.3c0.1-0.4,0.2-0.8,0.3-1.1
					c-0.2,0.1-0.4,0.2-0.6,0.3c-0.1,0.3-0.1,0.6-0.2,0.9c0,0.1-0.2,0.2-0.3,0.2c-0.2,0-0.3-0.1-0.3-0.3l0.1-0.4
					c-0.2,0.1-0.5,0.2-0.7,0.3c-0.1,0-0.2,0-0.3-0.1c-0.1-0.1,0-0.3,0.2-0.4c0.2-0.1,0.3-0.2,0.5-0.3c-0.2,0-0.4-0.1-0.6-0.2
					c-0.1-0.1-0.2-0.2-0.1-0.3c0.1-0.2,0.3-0.2,0.5,0l0.8,0.1l0.7-0.4c-0.4-0.1-0.9-0.2-1.3-0.3c-0.2-0.1-0.2-0.2-0.2-0.3
					c0.1-0.1,0.4-0.2,0.6,0l1.5,0.3l0.6-0.3l-0.5-0.2c-0.1-0.1-0.1-0.2-0.1-0.3c0.1-0.1,0.3-0.2,0.5,0l0.9,0.1l0.8-0.4
					c-0.2-0.1-0.5-0.3-0.7-0.4c-0.4,0.1-0.7,0.1-1.1,0.2c-0.2,0-0.3-0.1-0.3-0.2c0-0.1,0.1-0.3,0.3-0.3c0.1,0,0.2,0,0.3-0.1
					c-0.2-0.1-0.4-0.2-0.7-0.4c-0.6,0.1-1.2,0.3-1.8,0.4c-0.2,0-0.3-0.1-0.3-0.2c0-0.1,0.1-0.3,0.2-0.3c0.3-0.1,0.7-0.2,1-0.3
					c0,0,0.1-0.1,0-0.1c-0.2-0.1-0.4-0.2-0.5-0.3c-0.3,0.1-0.7,0.2-1,0.2c-0.1,0-0.2-0.1-0.2-0.2c0-0.1,0.1-0.2,0.3-0.2
					c0.1,0,0.2-0.1,0.4-0.2c-0.2-0.1-0.4-0.2-0.6-0.3c-0.2-0.1-0.2-0.3-0.2-0.4c0.1-0.1,0.3-0.1,0.5,0
					C25.2,15.3,25.3,15.4,25.4,15.4L25.4,15.4z"/>
				<g>
					<g class="st2">
						<path class="st3" d="M25.4,15.4c0,0-0.1-0.3-0.1-0.5c0,0,0,0,0,0c0-0.1,0.1-0.2,0.2-0.2c0.1,0,0.2,0,0.2,0
							c0,0,0.1,0.1,0.2,0.4c0.1,0.3,0.1,0.5,0.1,0.5c0,0.1,0,0.1,0.1,0.2c0.1,0,0.3,0.1,0.5,0.2c0.3,0.2,0,0.1,0.1,0.1s0,0,0,0
							c0,0,0-0.1,0-0.1c0-0.2-0.1-0.4-0.2-0.7c-0.1-0.2-0.1-0.2-0.1-0.3c0-0.1,0-0.2,0.1-0.3c0.1-0.1,0.2,0,0.3,0
							c0.1,0.1,0.1,0.2,0.2,0.2c0.3,0.8,0.4,0.9,0.4,1.5c0,0,0,0.1,0,0.1c0,0,0,0,0,0c0.3,0.2,0.5,0.4,0.6,0.3c0,0,0-0.1,0-0.3
							c-0.1-0.3-0.1-0.4,0-0.4c0.1-0.1,0.3-0.1,0.4,0c0.1,0,0.1,0.1,0.1,0.1c0.1,0.1,0.1,0.2,0.1,0.3c0,0,0,0.2,0.1,0.5
							c0,0.2,0.2,0.4,0.8,0.5c0,0,0.1,0,0.1-0.1c0-0.2,0-0.6,0-0.7c0,0,0,0,0,0c-0.2-0.2-0.5-0.5-0.8-0.7c0,0,0,0,0,0
							c-0.1-0.1,0-0.2,0-0.3c0.1-0.1,0.2-0.1,0.4,0l0.3,0.2c0,0,0.1,0,0.1,0v-0.5c0,0,0,0,0,0c-0.5-0.4-0.9-0.8-1.3-1.2c0,0,0,0,0,0
							c-0.1-0.1,0-0.3,0-0.3c0.1-0.1,0.3,0,0.4,0c0.1,0,0.2,0.1,0.2,0.1c0.4,0.4,0.6,0.7,0.7,0.7c0,0,0.1-0.1,0-0.6
							c-0.2-0.2-0.4-0.4-0.6-0.6c-0.2-0.1-0.3-0.2-0.3-0.3c0-0.1,0.2-0.2,0.4-0.1c0,0,0,0,0,0c0.1,0.1,0.2,0.1,0.3,0.2
							c0,0,0.1,0,0.1,0l0-0.6c0,0,0,0,0,0c0,0,0.2-0.1,0.3-0.1c0.2,0,0.3,0.2,0.3,0.3c0,0.2,0,0.4,0,0.5l0,0c0,0.1,0.1,0.1,0.1,0
							l0.4-0.3c0,0,0,0,0,0c0.1,0,0.2,0,0.2,0c0.1,0,0.1,0.2,0.1,0.3c0,0,0,0,0,0c-0.1,0.1-0.7,0.6-0.8,0.7c0,0,0,0,0,0
							c0,0.2,0,0.4,0,0.5c0,0,0.1,0.1,0.1,0c0.2-0.1,0.3-0.3,0.8-0.6c0.1-0.1,0.2-0.1,0.3-0.2c0.1,0,0.3,0.1,0.3,0.2
							c0,0.1,0,0.1-0.3,0.4c-0.4,0.4-0.8,0.6-1.1,0.9c0,0.2,0,0.4,0,0.6c0.1-0.1,0.2-0.2,0.5-0.3c0.1,0,0.2,0,0.3,0
							c0.1,0.1,0.1,0.2,0.1,0.3c0,0.1-0.2,0.2-0.3,0.3c-0.2,0.1-0.3,0.2-0.6,0.5c0,0.3,0,0.6,0,0.9c0.3-0.1,0.6-0.3,0.9-0.5l0.2-0.7
							c-0.1-0.2,0.1-0.4,0.2-0.4c0.1,0,0.2,0.1,0.2,0.3c0,0.1,0,0.3-0.1,0.5c0.2-0.1,0.4-0.2,0.7-0.4l0.5-1.4
							c-0.1-0.2,0.1-0.4,0.3-0.4c0.1,0,0.2,0.1,0.2,0.3c-0.1,0.4-0.2,0.8-0.3,1.2c0.2-0.1,0.5-0.2,0.7-0.4l0.2-0.7
							c-0.1-0.2,0.1-0.4,0.2-0.3c0.1,0,0.2,0.1,0.2,0.3c0,0.1-0.1,0.3-0.1,0.4c0.2-0.1,0.5-0.2,0.8-0.3c0.1,0,0.2,0,0.2,0.1
							c0.1,0.1,0,0.3-0.1,0.4c-0.2,0.1-0.4,0.2-0.6,0.3c0.2,0.1,0.4,0.1,0.6,0.2c0.1,0.1,0.2,0.2,0.1,0.3c-0.1,0.2-0.4,0.2-0.6,0
							l-0.8-0.1l-0.6,0.3c0.4,0.1,0.8,0.2,1.3,0.4c0.2,0,0.3,0.2,0.2,0.3c0,0.2-0.4,0.3-0.6,0l-1.6-0.3c-0.2,0.1-0.5,0.2-0.7,0.4
							l0.6,0.1c0.1,0.1,0.1,0.2,0.1,0.3c-0.1,0.2-0.4,0.2-0.6,0l-0.8-0.1c-0.2,0.1-0.5,0.3-0.8,0.4l0.8,0.4l0.7-0.1
							c0.2-0.2,0.5-0.1,0.6,0c0,0.1,0,0.2-0.1,0.3l-0.5,0.1l0.6,0.4c0.6-0.1,1.3-0.3,1.9-0.4c0.2,0,0.3,0.1,0.3,0.2
							c0,0.1-0.1,0.3-0.3,0.3c-0.4,0.1-0.9,0.2-1.3,0.3c0.2,0.1,0.5,0.2,0.7,0.4l0.7-0.1c0.3-0.2,0.6-0.1,0.6,0c0,0.1,0,0.2-0.1,0.3
							c-0.2,0-0.3,0.1-0.5,0.1c0.2,0.1,0.4,0.2,0.6,0.4c0.1,0.1,0.2,0.3,0.1,0.4c-0.1,0.1-0.3,0.1-0.6,0l-0.4-0.2
							c0,0.2,0.1,0.3,0.1,0.5c0,0.1-0.1,0.2-0.2,0.2c-0.1,0-0.3,0-0.4-0.2c-0.1-0.3-0.2-0.6-0.2-0.9c-0.2-0.1-0.4-0.2-0.6-0.4
							l0.3,1.2c0,0.1-0.1,0.2-0.2,0.2c-0.1,0-0.3-0.1-0.4-0.2c-0.2-0.5-0.3-1-0.5-1.6l-0.6-0.3c0,0.2,0.1,0.4,0.1,0.6
							c0,0-0.1,0.1-0.2,0.1c-0.1,0-0.2-0.1-0.3-0.2c-0.1-0.3-0.2-0.6-0.3-0.9c-0.2-0.1-0.5-0.3-0.8-0.4c0,0.3,0,0.6,0,0.8
							c0.3,0.2,0.5,0.5,0.8,0.7c0,0.1,0,0.2-0.1,0.3c-0.1,0.1-0.3,0-0.4-0.1c-0.1-0.1-0.2-0.2-0.3-0.3v0.7c0.5,0.4,0.9,0.9,1.4,1.3
							c0,0.1,0,0.2-0.1,0.3c-0.1,0.1-0.4,0-0.5-0.2c-0.3-0.2-0.5-0.5-0.8-0.7c0,0.2,0,0.5,0,0.8c0.3,0.2,0.5,0.5,0.8,0.7
							c0,0,0,0.2-0.1,0.2c-0.1,0.1-0.3,0-0.5-0.1c-0.1-0.1-0.2-0.1-0.2-0.2c0,0.2,0,0.5,0,0.8c0,0-0.1,0.1-0.2,0.1
							c-0.1,0-0.3-0.1-0.3-0.2v-0.6c-0.2,0.1-0.3,0.2-0.5,0.3c0,0-0.2,0-0.3-0.1s-0.1-0.3,0.1-0.4c0.2-0.2,0.4-0.4,0.6-0.6v-0.7
							c-0.3,0.3-0.7,0.6-1,0.9c-0.1,0.1-0.3,0-0.4,0c-0.1-0.1,0-0.4,0.3-0.5l1-1c0-0.3,0-0.5,0-0.8c-0.2,0.1-0.3,0.3-0.5,0.4
							c-0.1,0-0.2,0-0.3,0c-0.1-0.1-0.1-0.3,0.1-0.4c0.2-0.2,0.4-0.4,0.6-0.6c0-0.3,0-0.6,0-0.9l-0.8,0.5c-0.1,0.3-0.2,0.6-0.3,1
							c-0.1,0.1-0.2,0.1-0.3,0c-0.1,0-0.2-0.2-0.2-0.3l0.2-0.5c-0.2,0.1-0.5,0.2-0.7,0.4c-0.2,0.6-0.3,1.2-0.5,1.7
							c-0.1,0.1-0.2,0.1-0.3,0.1c-0.1,0-0.2-0.2-0.2-0.3c0.1-0.4,0.2-0.8,0.3-1.1c-0.2,0.1-0.4,0.2-0.6,0.3
							c-0.1,0.3-0.1,0.6-0.2,0.9c0,0.1-0.2,0.2-0.3,0.2c-0.2,0-0.3-0.1-0.3-0.3l0.1-0.4c-0.2,0.1-0.5,0.2-0.7,0.3
							c-0.1,0-0.2,0-0.3-0.1c-0.1-0.1,0-0.3,0.2-0.4c0.2-0.1,0.3-0.2,0.5-0.3c-0.2,0-0.4-0.1-0.6-0.2c-0.1-0.1-0.2-0.2-0.1-0.3
							c0.1-0.2,0.3-0.2,0.5,0l0.8,0.1l0.7-0.4c-0.4-0.1-0.9-0.2-1.3-0.3c-0.2-0.1-0.2-0.2-0.2-0.3c0.1-0.1,0.4-0.2,0.6,0l1.5,0.3
							l0.6-0.3l-0.5-0.2c-0.1-0.1-0.1-0.2-0.1-0.3c0.1-0.1,0.3-0.2,0.5,0l0.9,0.1l0.8-0.4c-0.2-0.1-0.5-0.3-0.7-0.4
							c-0.4,0.1-0.7,0.1-1.1,0.2c-0.2,0-0.3-0.1-0.3-0.2c0-0.1,0.1-0.3,0.3-0.3c0.1,0,0.2,0,0.3-0.1c-0.2-0.1-0.4-0.2-0.7-0.4
							c-0.6,0.1-1.2,0.3-1.8,0.4c-0.2,0-0.3-0.1-0.3-0.2c0-0.1,0.1-0.3,0.2-0.3c0.3-0.1,0.7-0.2,1-0.3c0,0,0.1-0.1,0-0.1
							c-0.2-0.1-0.4-0.2-0.5-0.3c-0.3,0.1-0.7,0.2-1,0.2c-0.1,0-0.2-0.1-0.2-0.2c0-0.1,0.1-0.2,0.3-0.2c0.1,0,0.2-0.1,0.4-0.2
							c-0.2-0.1-0.4-0.2-0.6-0.3c-0.2-0.1-0.2-0.3-0.2-0.4c0.1-0.1,0.3-0.1,0.5,0C25.2,15.3,25.3,15.4,25.4,15.4L25.4,15.4z"/>
					</g>
				</g>
			</g>
		</g>
	</g>
</g>
</svg>
