<?xml version="1.0" encoding="UTF-8"?>
<svg id="Layer_1" data-name="Layer 1" xmlns="http://www.w3.org/2000/svg" viewBox="0 0 60 60">
  <defs>
    <style>
      .cls-1 {
        stroke-width: .9px;
      }

      .cls-1, .cls-2, .cls-3 {
        fill: none;
        stroke-miterlimit: 10;
      }

      .cls-1, .cls-3 {
        stroke: #999;
      }

      .cls-2 {
        stroke: #000;
      }

      .cls-4 {
        stroke-width: 0px;
      }

      .cls-3 {
        stroke-width: .5px;
      }
    </style>
  </defs>
  <path class="cls-1" d="M24.92,41.33c-.08-1.89-.34-2.21-.48-2.55-.75-1.79-3.11-2.81-5.74-2.17l.56-1.22c3.73.02,7.45.04,11.18.06,1.04.78,2.09,1.55,3.13,2.33.05,1,.1,2,.15,3-2.91.06-6.33.06-9.23.12"/>
  <path class="cls-3" d="M21.23,36.8c-.02-.44-.03-.87-.05-1.31"/>
  <path class="cls-3" d="M25.06,40.15c2.74-.06,5.49-.13,8.23-.19"/>
  <path class="cls-3" d="M23.5,37.41c3.27-.04,6.54-.08,9.81-.11"/>
  <path class="cls-3" d="M21.06,36.52c3.39-.05,6.78-.1,10.17-.14"/>
  <path class="cls-3" d="M24.44,38.25c2.91-.06,5.81-.12,8.72-.18"/>
  <path class="cls-3" d="M24.94,39.19c2.74-.06,5.49-.13,8.23-.19"/>
  <path class="cls-3" d="M32.25,41.12c-.07-1.44-.14-2.89-.2-4.33"/>
  <path class="cls-3" d="M28.62,40.96c-.1-1.77-.21-3.53-.31-5.3"/>
  <path class="cls-3" d="M30.35,40.93c-.09-1.73-.18-3.45-.26-5.18"/>
  <path class="cls-3" d="M26.55,41.1c-.05-1.85-.11-3.7-.16-5.55"/>
  <path class="cls-3" d="M24.61,38.39c-.06-1.05-.13-2.11-.19-3.16"/>
  <path class="cls-3" d="M22.8,37.25c0-.6,0-1.2.01-1.8"/>
  <g>
    <circle class="cls-2" cx="38.73" cy="39.21" r="4.47"/>
    <path class="cls-2" d="M23.31,40.93c0,1.82-1.5,3.32-3.32,3.32-2.04,0-3.27-1.89-3.32-3.32-.02-.51.12-.94.24-1.23.58-1.27,1.79-2.09,3.08-2.09,1.7,0,3.32,1.43,3.32,3.32Z"/>
    <path class="cls-2" d="M42.78,18.74c-3.27.19-10.53,1.06-16.7,6.12-2.49,2.04-4.48,4.71-4.48,4.71-1.72,2.28-2.82,4.44-3.52,6.1-.39,1.34-.77,2.69-1.16,4.03"/>
    <path class="cls-2" d="M14,29.5h18"/>
    <path class="cls-2" d="M36.23,14.59c-1.83,6.62-3.67,13.24-5.5,19.86"/>
    <path class="cls-2" d="M23.18,14.59c3.35,3.92,6.7,7.84,10.05,11.75"/>
    <path class="cls-2" d="M34.62,36.6c-4.39-2.41-8.78-4.83-13.16-7.24"/>
    <path class="cls-2" d="M23.22,15.01c.83-.6,1.81-1.17,2.93-1.57,4.58-1.64,8.55.5,10.32,1.65"/>
    <rect class="cls-2" x=".5" y=".5" width="59" height="59" rx="8.66" ry="8.66"/>
    <rect class="cls-4" x="22.9" y="14.57" width=".42" height=".74" transform="translate(-4.18 18.5) rotate(-40.31)"/>
  </g>
</svg>