<?xml version="1.0" encoding="UTF-8"?>
<svg xmlns="http://www.w3.org/2000/svg" version="1.1" viewBox="0 0 110 135">
  <!-- Generator: Adobe Illustrator 28.6.0, SVG Export Plug-In . SVG Version: 1.2.0 Build 709)  -->
  <g>
    <g id="_Шар_1" data-name="Шар_1">
      <path d="M106.1,89.8h-15.2v-34.8h-34.8V20.2H19.1v69.6H3.9v15.2h8.7v8.7h15.2v-8.7h54.4v8.7h15.2v-8.7h8.7v-15.2ZM56.1,83.3h32.6v6.5h-32.6v-6.5ZM67,57.2v11.6l5.4-2.7,5.4,2.7v-11.6h10.9v23.9h-32.6v-23.9h10.9ZM32.1,22.4v11.6l5.4-2.7,5.4,2.7v-11.6h10.9v23.9H21.3v-23.9h10.9ZM21.3,48.5h32.6v6.5H21.3v-6.5ZM32.1,57.2v11.6l5.4-2.7,5.4,2.7v-11.6h10.9v23.9H21.3v-23.9h10.9ZM21.3,83.3h32.6v6.5H21.3v-6.5ZM25.6,111.6h-10.9v-6.5h10.9v6.5ZM95.3,111.6h-10.9v-6.5h10.9v6.5Z"/>
    </g>
  </g>
</svg>