<?xml version="1.0" encoding="UTF-8"?>
<svg xmlns="http://www.w3.org/2000/svg" version="1.1" viewBox="0 0 110 135">
  <defs>
    <style>
      .cls-1 {
        fill-rule: evenodd;
      }
    </style>
  </defs>
  <!-- Generator: Adobe Illustrator 28.6.0, SVG Export Plug-In . SVG Version: 1.2.0 Build 709)  -->
  <g>
    <g id="_Шар_1" data-name="Шар_1">
      <path class="cls-1" d="M100.1,37.6c-.4-1-.8-2.1-1.2-3.2,3.7-3.6,2.4-10.7-.5-11.4-3-.8-3.9,2.5-5.1,5.5-1.2-3-4.2-3.2-4.7-1.2-.8,3.2,4.1,8,4.1,8.1.4,7.3-1.5,12.2-3.6,16l-.7-.4c-3.6-2.1-10.3-5.8-19.8-7.3l-2.9-1.2c1.3-.6,2.2-1.6,2.4-3l1-6.2c1.1,0,.8-3.1.8-3.1l.7-3.9c.2-2.7-5.2-5.8-6-5.9-1.7-.3-6.1.8-7.3,2.8l-.9,3.6s-2.4,2.8-1.3,3.4c.2.1.5,0,.7-.1-.6,3.9-2,8-.4,10.1-.9,0-1.8.2-2.9.4-13.7,2.1-28,7.2-30.6,8.9-.5.3-.1.8,0,1.4-4.1,1.6-18.1,12.8-17.2,15.1,1.4,3.6,8.4,11.7,20.7,24,1.4,1.4,2.9,4.1,7.6,4.2,0,1.2-.1,4.4,1.4,4.4l41.6,1.2c.3,0,.5-.2.5-.5.7-7.4,1.3-15,1.9-22.6,3.1-.5,3.2,2.6,5-1,6,3.3,9.7,3.9,15.8,4.1l.5-.3c9.6-17.7,5.3-28.9.3-41.9h0ZM78.3,65.5c0-.7,1.1-.7,1.1,0v9.1c0,.7-1.1.7-1.1,0v-9.1ZM67.6,44.5l-4.4,9c-.8-.3-2.9-1.5-4.1-2.3,1.6-1.7,4.7-5.1,5.7-7.9l2.8,1.2ZM57,41.5c1.9,1.1,4.5,1.7,6.8,1.5-.6,1.8-2.5,4.4-5.1,7.1-.8-2.6-1.9-6.1-1.7-8.6h0ZM55.6,37.3l1.3-8.1c1.1-.6,3-1.1,6-.6,3,.6,4.4,1.8,5.3,3.6l-1.2,7.1c-.8,4.5-9.9,2.6-11.4-.5-.2-.4,0-.8,0-1.5h0ZM55.9,41.2c-.3,3,1,6.7,1.8,9.6l-3.9,1.6-.8-10.8c1-.2,1.9-.3,2.8-.3h0ZM22.2,51.9c1.2,3.5,1.7,5,2,5.7-.6.5-3,2.1-2.9,2.8l2.1,26c-13-13.2-16.8-18.7-17.7-20.8.2-1.6,11.9-12,16.6-13.7h0ZM25.2,58.2l2.6-1.6c3.1-.2,18.5-1,25-1.1l-3.2,2.4c-3.5,0-19.6.4-25.8,1.4l1.4-1ZM52.1,85.8c-.7-8.9-1.3-16.8-1.7-27.1l4.2-3,1.8,25.2-4.2,4.9ZM41.6,87.1c0-.5-.3-2.2-1-2.2-3,.2-7.6,2.1-8,2.1s-3.8-.1-8.1-.2l-2.1-26.1c2.6-.9,19.9-1.6,26.9-1.7.4,10.4,1,18.4,1.8,27.5l-9.5.6ZM26.6,89.7l-1.8-1.9c2.1,0,4.1.1,5.5.2-3.1,1.5-1,1.7-.8,1.6,2.8-1.5,7.5-3.2,10.7-3.6,0,.1,0,.3,0,.4-4.4,2.5-7.1,2.2-6.8,3.3.4,1.4,6.2-1.7,7-2.1,0,.4,0,.8-.2,1.2-2.8,1.4-4.7,1.6-4.4,2.4.3,1,2.6-.3,3.7-.9-.6.9-1.4,1.6-2.4,1.8-6.8,2-9.1-.8-10.6-2.6h0ZM99,78.6c-6.6-.8-7.7,0-15-4,2.7-5.9,6-18.2,5.7-22,2.4-4.1,4.7-9.4,4.2-17.6,0-1-2-1.3-3.7-5.5-1.5-3.6,1.6-3.5,2.6.7.1.5.8.6,1,0,1.2-3.1,2.1-6.9,4.4-6.3,1.8.5,3.4,6.7-.2,9.7-.5.5.7,2.8,1.2,4.2,4.8,12.6,9,23.5,0,40.6h0ZM73.1,63.4c-2.3,0-4.7,0-7.1,0,0-.5,0-1.3,0-1.8,1.4,0,4.9,0,7.2,0v1.8Z"/>
    </g>
  </g>
</svg>