<svg xmlns="http://www.w3.org/2000/svg" version="1.1" viewBox="-5.0 -10.0 110.0 135.0">
 <path d="m95.898 70.508h-13.672v-31.25h-31.25v-31.25h-33.203v62.5h-13.672v13.672h7.8125v7.8125h13.672v-7.8125h48.828v7.8125h13.672v-7.8125h7.8125zm-44.922-5.8594h29.297v5.8594h-29.297zm9.7656-23.438v10.367l4.8828-2.4414 4.8828 2.4414v-10.367h9.7656v21.484h-29.297v-21.484zm-31.25-31.25v10.367l4.8828-2.4414 4.8828 2.4414v-10.367h9.7656v21.484h-29.297v-21.484zm-9.7656 23.438h29.297v5.8594h-29.297zm9.7656 7.8125v10.367l4.8828-2.4414 4.8828 2.4414v-10.367h9.7656v21.484h-29.297v-21.484zm-9.7656 23.438h29.297v5.8594h-29.297zm3.9062 25.391h-9.7656v-5.8594h9.7656zm62.5 0h-9.7656v-5.8594h9.7656z"/>
<text x="0.0" y="117.5" font-size="5.0" font-weight="bold" font-family="Arbeit Regular, Helvetica, Arial-Unicode, Arial, Sans-serif" fill="#000000">Created by PixelX</text><text x="0.0" y="122.5" font-size="5.0" font-weight="bold" font-family="Arbeit Regular, Helvetica, Arial-Unicode, Arial, Sans-serif" fill="#000000">from Noun Project</text></svg>