<svg xmlns="http://www.w3.org/2000/svg" version="1.1" viewBox="-5.0 -10.0 110.0 135.0">
 <path d="m90.211 30.004c-0.375-0.93359-0.71094-1.9062-1.0859-2.8398 3.3281-3.1758 2.1328-9.5273-0.44922-10.199-2.6914-0.67188-3.4766 2.2422-4.5625 4.8945-1.0469-2.6523-3.7383-2.8398-4.1484-1.0469-0.71094 2.875 3.625 7.1367 3.6641 7.2109 0.375 6.5391-1.3477 10.906-3.2539 14.309l-0.63672-0.375c-3.2148-1.832-9.1992-5.1914-17.648-6.5l-2.543-1.082c1.1602-0.52344 1.9453-1.418 2.1328-2.6914l0.93359-5.5273c1.0078-0.074219 0.67188-2.7656 0.67188-2.7656l0.59766-3.4375c0.14844-2.3906-4.6758-5.1914-5.3477-5.3047-1.4961-0.30078-5.4609 0.71094-6.543 2.5391l-0.82422 3.25s-2.168 2.4648-1.1953 2.9883c0.1875 0.11328 0.44922 0.074219 0.59766-0.11328-0.5625 3.5117-1.793 7.1719-0.375 8.9648-0.78516 0.039062-1.5703 0.14844-2.543 0.375-12.227 1.8672-24.941 6.4258-27.297 7.918-0.41016 0.30078-0.11328 0.74609 0.039062 1.2344-3.6641 1.3828-16.152 11.395-15.367 13.449 1.2695 3.25 7.4766 10.461 18.434 21.406 1.2344 1.2344 2.5781 3.6992 6.8047 3.7344-0.039063 1.082-0.11328 3.9219 1.2695 3.9609l37.129 1.0469c0.26172 0 0.44922-0.22266 0.48438-0.44922 0.63672-6.6133 1.1953-13.375 1.7188-20.137 2.7305-0.41016 2.8398 2.3164 4.4883-0.85938 5.3828 2.9141 8.6367 3.4727 14.098 3.6602l0.44922-0.26172c8.5234-15.801 4.7109-25.812 0.30078-37.355zm-19.406 24.879c0.039062-0.59766 0.97266-0.59766 0.97266 0.039063v8.0703c-0.039063 0.59766-0.97266 0.63672-0.97266-0.039063zm-9.5703-18.715-3.9258 8.0312c-0.74609-0.30078-2.6172-1.3086-3.625-2.0156 1.4219-1.4961 4.1875-4.5195 5.0859-7.0586zm-9.4961-2.6523c1.7188 1.0078 4.0391 1.5312 6.0586 1.3086-0.5625 1.6445-2.207 3.9219-4.5234 6.3516-0.67188-2.2773-1.7188-5.418-1.5312-7.6562zm-1.1602-3.7734 1.1602-7.2109c1.0078-0.52344 2.6914-1.0078 5.3086-0.52344 2.6914 0.52344 3.8867 1.5703 4.75 3.1758l-1.0859 6.3516c-0.67188 3.9961-8.8242 2.2773-10.133-0.48438-0.14844-0.33594-0.074219-0.74609 0-1.3086zm0.1875 3.5117c-0.30078 2.6523 0.93359 5.9414 1.6445 8.5547l-3.4414 1.3828-0.67188-9.6367c0.89844-0.1875 1.6836-0.26172 2.4688-0.30078zm-30.023 9.5273c1.0469 3.1016 1.4961 4.4844 1.7578 5.082-0.5625 0.41016-2.6562 1.9062-2.6172 2.5039l1.8711 23.199c-11.59-11.766-14.992-16.66-15.777-18.566 0.14844-1.3828 10.656-10.723 14.77-12.215zm2.6914 5.6406 2.3164-1.457c2.7305-0.22266 16.527-0.85938 22.324-0.97266l-2.8789 2.1289c-3.1016 0-17.5 0.375-23.031 1.2344zm23.969 24.617c-0.63672-7.957-1.1953-15.016-1.5312-24.168l3.7031-2.6523 1.6094 22.488zm-9.3867 1.1211c-0.039063-0.48438-0.26172-1.9805-0.93359-1.9414-2.6914 0.22266-6.8047 1.832-7.1055 1.832-0.039062 0-3.4023-0.11328-7.1797-0.22266l-1.8711-23.234c2.2812-0.78516 17.723-1.457 23.969-1.4961 0.33594 9.2656 0.89844 16.398 1.5703 24.504zm-13.348 2.3516-1.6445-1.6797c1.9062 0.039063 3.6641 0.11328 4.9375 0.14844-2.7656 1.3086-0.93359 1.5312-0.71094 1.457 2.4688-1.3086 6.6562-2.8398 9.5703-3.1758 0.039063 0.11328 0.074219 0.26172 0.074219 0.375-3.9648 2.2031-6.3203 1.9805-6.0586 2.9141 0.33594 1.2344 5.4961-1.4961 6.207-1.8672 0 0.375-0.074219 0.71094-0.14844 1.082-2.5039 1.2344-4.2266 1.418-3.9648 2.168 0.26172 0.85938 2.2812-0.30078 3.3281-0.78516-0.52344 0.78516-1.2695 1.3828-2.1328 1.6445-6.0195 1.793-8.1523-0.74609-9.4609-2.2773zm64.535-9.8984c-5.8711-0.71094-6.8789-0.039062-13.387-3.5469 2.3945-5.3047 5.3477-16.25 5.0469-19.574 2.1328-3.6602 4.2266-8.3672 3.7383-15.652-0.074218-0.93359-1.793-1.1562-3.3281-4.9297-1.3477-3.25 1.4219-3.1016 2.3164 0.59766 0.11328 0.48438 0.74609 0.52344 0.93359 0.074219 1.0859-2.7656 1.832-6.125 3.9258-5.6016 1.6445 0.41016 2.9922 5.9414-0.22266 8.668-0.48437 0.44922 0.59766 2.5039 1.0469 3.7344 4.3008 11.246 8.0391 20.992-0.074219 36.234zm-23.031-13.559c-2.0938 0-4.2266 0-6.3203-0.039063 0-0.48438-0.039062-1.1211-0.074218-1.5703 1.2344 0 4.3359 0 6.3945-0.039062z" fill-rule="evenodd"/>
<text x="0.0" y="117.5" font-size="5.0" font-weight="bold" font-family="Arbeit Regular, Helvetica, Arial-Unicode, Arial, Sans-serif" fill="#000000">Created by GreenHill</text><text x="0.0" y="122.5" font-size="5.0" font-weight="bold" font-family="Arbeit Regular, Helvetica, Arial-Unicode, Arial, Sans-serif" fill="#000000">from Noun Project</text></svg>