<?xml version="1.0" encoding="UTF-8"?>
<svg xmlns="http://www.w3.org/2000/svg" version="1.1" viewBox="0 0 200 45">
  <defs>
    <style>
      .cls-1, .cls-2, .cls-3, .cls-4, .cls-5, .cls-6, .cls-7, .cls-8, .cls-9, .cls-10 {
        stroke: #fff;
      }

      .cls-1, .cls-7 {
        stroke-width: 2.5px;
      }

      .cls-2, .cls-3, .cls-4, .cls-5, .cls-6, .cls-7, .cls-8, .cls-10 {
        stroke-miterlimit: 10;
      }

      .cls-2, .cls-4, .cls-5 {
        fill: #fff;
      }

      .cls-3 {
        stroke-width: .8px;
      }

      .cls-3, .cls-6, .cls-7, .cls-10 {
        fill: none;
      }

      .cls-11, .cls-4 {
        isolation: isolate;
      }

      .cls-4 {
        font-family: ArialMT, Arial;
        font-size: 21.9px;
      }

      .cls-5, .cls-10 {
        stroke-width: .2px;
      }

      .cls-6 {
        stroke-width: 1.5px;
      }

      .cls-8 {
        fill: #a02727;
      }

      .cls-12 {
        display: none;
      }
    </style>
  </defs>
  <!-- Generator: Adobe Illustrator 28.6.0, SVG Export Plug-In . SVG Version: 1.2.0 Build 709)  -->
  <g>
    <g id="_Шар_1" data-name="Шар_1" class="cls-12">
      <rect class="cls-8" x="-10.5" y="-7.5" width="234" height="66"/>
    </g>
    <g id="_Шар_2" data-name="Шар_2">
      <path class="cls-7" d="M2.7,10.2v24.9h13.4c2.2,0,4.5-.6,6.4-1.8.8-.5,1.5-1.1,2.2-1.9,4.1-4.8,2.2-11.2,2-11.9-.6-1.9-1.6-3.4-2.6-4.5-2.2-2.4-5.4-3.8-8.7-4-4-.3-10.7-.4-14.3-.2"/>
      <circle class="cls-7" cx="45.1" cy="24" r="14"/>
      <path class="cls-7" d="M66.7,35.6V11h3.2c6.3,7.7,12.7,15.5,19,23.2.5,0,.9,0,1.4.1,0-7.9-.2-15.8-.2-23.7"/>
      <path class="cls-6" d="M101.3,28.7c2.1-4.8,4.3-9.6,6.4-14.4h1.8c1.5,3.2,3,6.4,4.4,9.6.7,1.5,1.4,3,2.1,4.5"/>
      <path class="cls-6" d="M103.1,24.3c3.7,0,7.5.2,11.2.3"/>
      <path class="cls-6" d="M119.4,10.7c6,0,12,0,17.9-.1"/>
      <path class="cls-6" d="M128.3,10.5c0,6.4,0,12.8.1,19.2"/>
      <path class="cls-6" d="M137.8,29.6c2.3-5,4.5-10,6.8-15,.7,0,1.4,0,2.1-.1,2,4.8,4,9.6,6.1,14.4"/>
      <path class="cls-6" d="M139.8,24.6c3.7,0,7.4.2,11,.2"/>
      <g class="cls-11">
        <text class="cls-4" transform="translate(158.5 13.4) rotate(-43.8) scale(.8 1)"><tspan x="0" y="0">‚</tspan></text>
      </g>
      <path class="cls-6" d="M172.4,29.5c0-5,0-10-.1-15.1.7,0,1.5,0,2.2-.1,3.6,4.9,7.1,9.8,10.7,14.6.6,0,1.1,0,1.7.1,0-5-.1-10-.2-15"/>
      <line class="cls-3" x1="100.8" y1="35.2" x2="200.8" y2="35.2"/>
      <path class="cls-9" d="M63.9,10.1c2.8,0,5.7,0,8.5,0"/>
      <path class="cls-9" d="M64.4,35.4c1.5,0,3.1,0,4.6,0"/>
      <path class="cls-9" d="M87.6,10.7c1.5,0,3.1,0,4.6-.1"/>
      <path class="cls-9" d="M86.5,35.5h6.1"/>
      <path class="cls-9" d="M105.9,13.2c1.8,0,3.6,0,5.3,0"/>
      <path class="cls-9" d="M99.1,28.7c1.8,0,3.6,0,5.3,0"/>
      <path class="cls-9" d="M112.9,28.4c1.8,0,3.6,0,5.3,0"/>
      <path class="cls-9" d="M119.3,12.8c0-1.3,0-2.6,0-3.8"/>
      <path class="cls-9" d="M137.3,12.5c0-1.3,0-2.6,0-3.8"/>
      <path class="cls-9" d="M126.8,29.8h3.5"/>
      <path class="cls-9" d="M142.9,13.3c1.8,0,3.6,0,5.3,0"/>
      <path class="cls-9" d="M135.4,29.5c1.8,0,3.6,0,5.3,0"/>
      <path class="cls-9" d="M149.9,28.9c1.8,0,3.6,0,5.3,0"/>
      <path class="cls-9" d="M170.1,29.3c1.5,0,3,0,4.4,0"/>
      <path class="cls-9" d="M170.7,13.4c1.8,0,3.6,0,5.3,0"/>
      <path class="cls-9" d="M184.2,29.9h4.4"/>
      <path class="cls-9" d="M184.5,13.9c1.5,0,3,0,4.4,0"/>
      <path class="cls-1" d="M-.8,10.7c2.2,0,4.5,0,6.7,0"/>
      <path class="cls-5" d="M36.3,18.6c-.1,0-.3.2-.3.4,0,.2.2.4.5.4.6,0,1.2,0,1.8,0s.3,0,.5.2c.1.1.2.3.2.3,0,.2.1.3.2.5-.2,0-.4,0-.6,0,0,.1-.2.3-.2.6-.4,1.6,1.1,3.4,2.8,4.2.9.4,1.7.5,3.3.5,1,0,1.9,0,2.5,0,1,0,1.8-.2,2.4-.3.5-.2,1.3-.5,2-1.1,1.9-1.6,1.7-3.8,1.7-4.2,0-.2-.3-3.5-3.4-4.8-1.4-.6-2.7-.6-3.3-.5,0,0-.2.2-.3.5,0,.2,0,.3,0,.4v4.7c-2,0-3.8,0-5.7,0-.1-.3-.2-.6-.3-1,0-.2-.3-.4-.6-.6-.7-.4-1.4-.3-1.5-.3-.3,0-1.1,0-1.4,0h0,0Z"/>
      <path class="cls-2" d="M42.7,29.2c0,.9-.9,1.7-1.9,1.7s-1.9-.8-1.9-1.7.9-1.7,1.9-1.7,1.3.3,1.6.8c0,.1.5.3.3.9h0Z"/>
      <ellipse class="cls-2" cx="49.3" cy="29.2" rx="1.9" ry="1.7"/>
      <path class="cls-2" d="M41.5,27.9c.9-.8,1.9-1.7,2.8-2.5.5,0,1.1,0,1.6,0,.7.8,1.4,1.5,2.1,2.3-.3.1-.6.2-.9.3-.7-.6-1.3-1.3-2-1.9-.8.6-1.7,1.3-2.5,1.9"/>
      <path class="cls-10" d="M38,19.2s.7.3.9,1c.2.7-.3,1.3-.3,1.3"/>
      <path class="cls-1" d="M-.4,35c2.7,0,5.3,0,8,0"/>
      <rect class="cls-5" x="41.8" y="27.4" width="1" height=".8"/>
      <rect class="cls-5" x="44.1" y="25.6" width=".6" height=".8"/>
      <rect class="cls-5" x="45.5" y="25.6" width=".9" height="1"/>
      <rect class="cls-5" x="158.3" y="10.4" width="1.7" height="1.5"/>
    </g>
  </g>
</svg>