<?xml version="1.0" encoding="UTF-8"?>
<svg xmlns="http://www.w3.org/2000/svg" version="1.1" viewBox="0 0 3169.1 468.6">
  <defs>
    <style>
      .cls-1 {
        stroke: #fff;
        stroke-width: .2px;
      }

      .cls-1, .cls-2, .cls-3 {
        stroke-miterlimit: 10;
      }

      .cls-2, .cls-3 {
        stroke: #000;
      }

      .cls-3 {
        stroke-width: 7px;
      }
    </style>
  </defs>
  <!-- Generator: Adobe Illustrator 28.6.0, SVG Export Plug-In . SVG Version: 1.2.0 Build 709)  -->
  <g>
    <g id="_Шар_1">
      <path class="cls-3" d="M0,418.4V20.1h168.7c138.7,0,231.9,92,231.9,219s-32.1,137-86.6,175.9M275.4,415c65.5-32.8,103.9-96.9,103.9-175.9,0-115.7-82.5-199.6-211.9-199.6H21.2v375.4h254.2Z"/>
      <path class="cls-3" d="M471.8,239.1c0-127,96.9-221.5,225.6-221.5s226.2,94.5,226.2,221.5-96.9,221.5-226.2,221.5-225.6-94.5-225.6-221.5h0ZM902.4,239.1c0-115.7-88.1-202.1-205-202.1s-204.4,86.3-204.4,202.1,88.1,202.1,204.4,202.1,205-86.3,205-202.1h0Z"/>
      <path class="cls-3" d="M1815.5,329.8h-261.9l-40,87.3-21.8-2.6L1674.3,20.1h20.6l202.5,437.9h-23.1l-58.8-128.2ZM1807.4,311.7l-122.5-267.1-123.1,267.1h245.6Z"/>
      <polygon class="cls-3" points="2224.8 20.2 2224.8 39.5 2064.2 39.5 2064.2 424.6 2043.6 424.6 2043.6 39.5 1883 39.5 1883 20.2 2224.8 20.2"/>
      <path class="cls-3" d="M2553.6,329.8h-261.9l-38.8,84.8h-22.9l182.4-394.4h20.6l202.5,437.9h-23.1l-58.8-128.2h0ZM2545.4,311.7l-122.5-267.1-123.1,267.1h245.6Z"/>
      <path class="cls-3" d="M2701.1,33.6c0,7.5-1.2,12.5-3.8,22.5l-22.5,84.5h-16.2l19.4-87c-10.6-1.2-18.1-10-18.1-20s8.8-20.6,20.6-20.6,20.6,10,20.6,20.6h0Z"/>
      <path class="cls-3" d="M3169.1,20.1v437.9h-17.5l-310.6-399.1v365.1h-21.2V20.1h17.5l310.6,399.1V20.1h21.2Z"/>
      <path class="cls-3" d="M1389.2,20.2v404.4h-43.6l-15.6-20L1061.1,58.9v365.1h-21.2V20.2h17.5l299.1,384.4,10.6,13.6c.3.3.8.2.8-.3V20.2h21.2Z"/>
      <path d="M255.4,383.6c32.5-1,32.5-48.4,0-49.5-32.5,1-32.5,48.4,0,49.5ZM255.4,344.6c7.9.1,14.1,6.6,14,14.4-.1,7.7-6.3,13.9-14,14-7.9-.2-14.1-6.7-13.9-14.5.1-7.6,6.3-13.8,13.9-14h0Z"/>
      <path class="cls-2" d="M73.8,313.1c-60.4,2.4-60.5,89,0,91.4,23.2,0,42.6-17.4,45.3-40.5h91.1c2.8,25,25.4,43,50.4,40.2,23.1-2.6,40.5-22.2,40.5-45.4.3-39.2-47.4-60.3-75.9-34l-13.7-12.2c99.4-50,66.1-200.2-46.8-201.8h-40.3c-2.9,0-5.3,2.4-5.2,5.3,0,.6.1,1.3.4,1.8l37.5,94h-87.9v-15c0-8.5-6.9-15.4-15.3-15.4h-20.2c-2.9,0-5.2,2.4-5.2,5.2s2.4,5.2,5.2,5.2h20.2c2.7,0,4.8,2.2,4.8,4.9v20.2c0,40.5,23,77.5,59.4,95.4l-13.7,12.2c-8.3-7.5-19.1-11.7-30.3-11.7h0ZM73.8,394.1c-19.4,0-35.1-15.8-35.1-35.2,1.7-46.6,68.5-46.6,70.2,0,0,19.4-15.7,35.2-35.1,35.3h0ZM255.4,323.6c19.4,0,35.1,15.8,35.1,35.2-1.6,46.5-68.4,46.6-70.2.1,0-19.4,15.6-35.3,35.1-35.3h0,0ZM69.2,222.5h90.1v4.9c0,2.7-2.2,4.9-4.8,4.9h-84.3c-.5-3.2-.8-6.5-1-9.7h0ZM159.4,121.3v68.6l-27.4-68.6h27.4ZM72.5,242.7h82c8.5,0,15.3-6.9,15.3-15.4v-105.8c48.7,2.8,87.5,41.7,90.1,90.4h-74.4c-2.9,0-5.2,2.4-5.2,5.2s2.4,5.2,5.2,5.2h74.4c-8.3,108.6-156.9,123.9-187.5,20.2h0ZM164.6,323.6c12.3,0,24.5-2.2,36.1-6.5l17.4,15.5c-4.4,6.2-7.1,13.4-8,21h-91c-.9-7.5-3.6-14.8-8-21l17.4-15.5c11.6,4.3,23.8,6.5,36.1,6.5h0Z"/>
      <path d="M73.8,342.1c-32.5,1-32.5,48.4,0,49.5,32.5-1,32.5-48.4,0-49.5ZM73.8,381.1c-7.9-.2-14.1-6.7-13.9-14.6.2-7.6,6.3-13.7,13.9-13.9,7.9.2,14.1,6.7,13.9,14.6-.2,7.6-6.3,13.7-13.9,13.9Z"/>
      <rect class="cls-1" y="404.6" width="574" height="20"/>
      <rect class="cls-3" x="817" y="404.6" width="2024" height="20"/>
    </g>
  </g>
</svg>