<?xml version="1.0" encoding="UTF-8"?>
<svg id="Layer_1" data-name="Layer 1" xmlns="http://www.w3.org/2000/svg" viewBox="0 0 60 60">
  <defs>
    <style>
      .cls-1 {
        opacity: .5;
        stroke-width: .75px;
      }

      .cls-1, .cls-2 {
        fill: none;
        stroke: #000;
        stroke-miterlimit: 10;
      }

      .cls-3 {
        stroke-width: 0px;
      }
    </style>
  </defs>
  <circle class="cls-2" cx="38.73" cy="39.21" r="4.47"/>
  <path class="cls-2" d="M23.31,40.93c0,1.82-1.5,3.32-3.32,3.32-2.04,0-3.27-1.89-3.32-3.32-.02-.51.12-.94.24-1.23.58-1.27,1.79-2.09,3.08-2.09,1.7,0,3.32,1.43,3.32,3.32Z"/>
  <path class="cls-2" d="M42.78,18.74c-3.27.19-10.53,1.06-16.7,6.12-2.49,2.04-4.48,4.71-4.48,4.71-1.72,2.28-2.82,4.44-3.52,6.1-.39,1.34-.77,2.69-1.16,4.03"/>
  <path class="cls-2" d="M14,29.5h18"/>
  <path class="cls-2" d="M36.23,14.59c-1.83,6.62-3.67,13.24-5.5,19.86"/>
  <path class="cls-2" d="M23.18,14.59c3.35,3.92,6.7,7.84,10.05,11.75"/>
  <path class="cls-2" d="M34.62,36.6c-4.39-2.41-8.78-4.83-13.16-7.24"/>
  <path class="cls-2" d="M23.22,15.01c.83-.6,1.81-1.17,2.93-1.57,4.58-1.64,8.55.5,10.32,1.65"/>
  <rect class="cls-2" x=".5" y=".5" width="59" height="59" rx="8.66" ry="8.66"/>
  <rect class="cls-3" x="22.9" y="14.57" width=".42" height=".74" transform="translate(-4.18 18.5) rotate(-40.31)"/>
  <path class="cls-1" d="M41.97,15.16c-2.78.47-8.92,1.77-13.82,5.41-1.98,1.47-3.48,3.25-3.48,3.25-1.3,1.52-2.08,2.91-2.56,3.96-.23.83-.46,1.66-.69,2.49"/>
  <path class="cls-1" d="M43.4,22.58c-2.76-.3-8.93-.67-14.61,1.84-2.29,1.01-4.23,2.5-4.23,2.5-1.67,1.27-2.81,2.54-3.57,3.53-.46.83-.92,1.66-1.38,2.49"/>
</svg>