<?xml version="1.0" encoding="UTF-8"?>
<svg id="Layer_1" data-name="Layer 1" xmlns="http://www.w3.org/2000/svg" viewBox="0 0 81.96 58.76">
  <defs>
    <style>
      .cls-1 {
        stroke-width: 0px;
      }

      .cls-1, .cls-2 {
        fill: none;
      }

      .cls-2 {
        stroke: #000;
        stroke-miterlimit: 10;
      }
    </style>
  </defs>
  <path class="cls-1" d="M.09,11.52c1.16-.03,2.32-.06,3.47-.09.03.46.06.93.09,1.39l-3.65.17"/>
  <g>
    <path class="cls-2" d="M39.66,28c1.72-1.63,3.44-3.26,5.16-4.89.48-.45,1.46-1.23,2.84-1.38.35-.04.66-.03.95,0l7.96-.09c.08,0,.16.03.22.08l7.47,6.19c.39.58.46,1.31.17,1.84-.4.73-1.45,1.03-2.32.46l-5.13-4.75c-.24-.22-.61-.03-.6.31l.22,4.63c.09.3.21.61.34.92.84,1.93,2.16,3.2,3.18,3.96.14.07,1.36.67,1.63,2.03.26,1.29-.45,2.74-1.77,3.39-.03.01-.05.03-.07.05l-3.58,3.29c-.79.67-1.86.67-2.49.09-.8-.72-.87-2.27.09-3.23l2.56-2.44c.23-.21.12-.61-.18-.67-1.16-.23-2.58-.41-4.19-.4-1.63.02-3.06.23-4.22.5-.27.06-.37.42-.19.64l2.39,2.83c.4.47.53.85.52,1.25,0,.45-.11,1.01-.49,1.42-.75.81-2.37.79-3.53-.46-1.49-1.57-2.98-3.13-4.47-4.7-.09-.14-.53-.86-.34-1.75.2-.54.46-1.16,1.48-1.73.34-.19.64-.49.84-.85.89-1.52,1.65-2.84,2.53-4.34.33-.57.51-1.22.52-1.89l.04-2.52c0-.33-.35-.51-.59-.3l-4.61,4.12-.62.55c-.26.24-.64.27-.94.09l-.69-.43"/>
    <path class="cls-2" d="M40.32,27.44c-.71.35-.99.93-.96,1.53.02.36.09.65,1.05,1.24"/>
    <path class="cls-2" d="M45.81,31.65c3.84-.02,7.68-.04,11.52-.06"/>
    <path class="cls-2" d="M47.83,44.37c-.32-.87-.13-1.88.45-2.47.63-.64,1.59-.65,2.26,0"/>
    <path class="cls-2" d="M53.31,41.83c.62-.55,1.51-.58,2.18-.09.73.53,1.03,1.57.69,2.44"/>
    <path class="cls-2" d="M46.31,22.36c1.61,2.86,3.21,5.73,4.82,8.59.38.67,1.35.66,1.71-.02l4.58-8.71"/>
    <ellipse class="cls-2" cx="51.94" cy="15.86" rx="4.27" ry="4.28"/>
    <path class="cls-2" d="M51.8,30.98c.05,2.2.11,4.39.16,6.59"/>
    <path class="cls-2" d="M56.41,38.14c.41-.1,1.78-.47,1.23-.31"/>
    <path class="cls-2" d="M44.45,33.34c1.69,1.43,3.38,2.86,5.08,4.29"/>
    <path class="cls-2" d="M58.64,33.43c-1.34,1.44-2.68,2.87-4.02,4.31"/>
    <path class="cls-2" d="M47.79,38.28c-.41-.13-1.76-.55-1.22-.39"/>
    <path class="cls-2" d="M50.28,19.81c-.04.7-.08,1.4-.12,2.1"/>
    <path class="cls-2" d="M53.83,19.51c-.01.73-.02,1.46-.03,2.19"/>
  </g>
  <rect class="cls-2" x="23.98" y=".5" width="57.47" height="57.76" rx="9.57" ry="9.57"/>
</svg>