<?xml version="1.0" encoding="UTF-8"?>
<svg id="Layer_1" data-name="Layer 1" xmlns="http://www.w3.org/2000/svg" viewBox="0 0 60 60">
  <defs>
    <style>
      .cls-1 {
        opacity: .5;
        stroke-width: .5px;
      }

      .cls-1, .cls-2 {
        fill: none;
        stroke: #000;
        stroke-miterlimit: 10;
      }

      .cls-3, .cls-4, .cls-5 {
        stroke-width: 0px;
      }

      .cls-4 {
        fill: #2abaff;
      }

      .cls-5 {
        fill: #fff;
      }
    </style>
  </defs>
  <circle class="cls-2" cx="38.73" cy="39.21" r="4.47"/>
  <path class="cls-2" d="M23.31,40.93c0,1.82-1.5,3.32-3.32,3.32-2.04,0-3.27-1.89-3.32-3.32-.02-.51.12-.94.24-1.23.58-1.27,1.79-2.09,3.08-2.09,1.7,0,3.32,1.43,3.32,3.32Z"/>
  <path class="cls-2" d="M42.78,18.74c-3.27.19-10.53,1.06-16.7,6.12-2.37,1.94-3.95,3.99-4.48,4.71-2.9,3.9-4.13,7.75-4.68,10.13"/>
  <path class="cls-2" d="M14,29.5h18"/>
  <path class="cls-2" d="M36.23,14.59c-1.83,6.62-3.67,13.24-5.5,19.86"/>
  <path class="cls-2" d="M23.18,14.59c3.35,3.92,6.7,7.84,10.05,11.75"/>
  <path class="cls-2" d="M34.62,36.6c-4.39-2.41-8.78-4.83-13.16-7.24"/>
  <path class="cls-2" d="M23.22,15.01c.83-.6,1.81-1.17,2.93-1.57,4.58-1.64,8.55.5,10.32,1.65"/>
  <rect class="cls-2" x=".5" y=".5" width="59" height="59" rx="8.66" ry="8.66"/>
  <rect class="cls-3" x="22.9" y="14.57" width=".42" height=".74" transform="translate(-4.18 18.5) rotate(-40.31)"/>
  <path class="cls-1" d="M14.5,34c-.18-.46-3.59-9.44,1.5-16.65,4.42-6.26,13.29-8.43,21-4.54-.17.62-.33,1.24-.5,1.86"/>
  <path class="cls-4" d="M7.34,6.1s-.02.06-.02.09c-.01.17-.09.36-.26.75-.15.36-.32.61-.64,1.2-.44.81-.48.99-.51,1.14-.03.18-.09.59.12,1,.21.43.66.78,1.2.81.63.04,1.14-.36,1.37-.77.17-.29.19-.59.2-.72,0-.07.01-.31-.09-.65-.14-.44-.3-.49-.61-1.05-.19-.35-.31-.65-.4-.88-.2-.51-.31-.95-.36-.94Z"/>
  <path class="cls-4" d="M13.99,10.32s-.02.06-.02.09c-.01.17-.09.36-.26.75-.15.36-.32.61-.64,1.2-.44.81-.48.99-.51,1.14-.03.18-.09.59.12,1,.21.43.66.78,1.2.81.63.04,1.14-.36,1.37-.77.17-.29.19-.59.2-.72,0-.07.01-.31-.09-.65-.14-.44-.3-.49-.61-1.05-.19-.35-.31-.65-.4-.88-.2-.51-.31-.95-.36-.94Z"/>
  <path class="cls-4" d="M9.5,10.35s-.02.06-.02.09c-.01.17-.09.36-.26.75-.15.36-.32.61-.64,1.2-.44.81-.48.99-.51,1.14-.03.18-.09.59.12,1,.21.43.66.78,1.2.81.63.04,1.14-.36,1.37-.77.17-.29.19-.59.2-.72,0-.07.01-.31-.09-.65-.14-.44-.3-.49-.61-1.05-.19-.35-.31-.65-.4-.88-.2-.51-.31-.95-.36-.94Z"/>
  <path class="cls-4" d="M16.39,6.09s-.02.06-.02.09c-.01.17-.09.36-.26.75-.15.36-.32.61-.64,1.2-.44.81-.48.99-.51,1.14-.03.18-.09.59.12,1,.21.43.66.78,1.2.81.63.04,1.14-.36,1.37-.77.17-.29.19-.59.2-.72,0-.07.01-.31-.09-.65-.14-.44-.3-.49-.61-1.05-.19-.35-.31-.65-.4-.88-.2-.51-.31-.95-.36-.94Z"/>
  <path class="cls-4" d="M11.67,14.46s-.02.06-.02.09c-.01.17-.09.36-.26.75-.15.36-.32.61-.64,1.2-.44.81-.48.99-.51,1.14-.03.18-.09.59.12,1,.21.43.66.78,1.2.81.63.04,1.14-.36,1.37-.77.17-.29.19-.59.2-.72,0-.07.01-.31-.09-.65-.14-.44-.3-.49-.61-1.05-.19-.35-.31-.65-.4-.88-.2-.51-.31-.95-.36-.94Z"/>
  <path class="cls-4" d="M11.85,5.98s-.02.06-.02.09c-.01.17-.09.37-.26.76-.15.37-.32.62-.64,1.22-.44.83-.48,1.01-.51,1.16-.03.19-.09.6.12,1.02.21.44.66.79,1.2.83.63.04,1.14-.37,1.37-.79.17-.3.19-.61.2-.73,0-.07.01-.32-.09-.66-.14-.45-.3-.5-.61-1.07-.19-.35-.31-.67-.4-.9-.2-.52-.31-.97-.36-.95Z"/>
  <path class="cls-5" d="M6.52,8.88c-.13.11-.19.31-.19.31s-.1.37-.04.8c0,0,.01.1.07.24.04.1.06.13.1.14.04.02.09,0,.15-.01.05-.02.1-.03.13-.06.06-.06.04-.2-.03-.33-.06-.1-.12-.19-.19-.29-.05-.07-.06-.14-.06-.18-.01-.16.09-.23.14-.51.02-.1.02-.15,0-.16,0,0-.03,0-.07.03Z"/>
  <path class="cls-5" d="M11.04,8.88c-.13.11-.19.31-.19.31s-.1.37-.04.8c0,0,.01.1.07.24.04.1.06.13.1.14.04.02.09,0,.15-.01.05-.02.1-.03.13-.06.06-.06.04-.2-.03-.33-.06-.1-.12-.19-.19-.29-.05-.07-.06-.14-.06-.18-.01-.16.09-.23.14-.51.02-.1.02-.15,0-.16,0,0-.03,0-.07.03Z"/>
  <path class="cls-5" d="M10.84,17.2c-.13.11-.19.31-.19.31s-.1.37-.04.8c0,0,.01.1.07.24.04.1.06.13.1.14.04.02.09,0,.15-.01.05-.02.1-.03.13-.06.06-.06.04-.2-.03-.33-.06-.1-.12-.19-.19-.29-.05-.07-.06-.14-.06-.18-.01-.16.09-.23.14-.51.02-.1.02-.15,0-.16,0,0-.03,0-.07.03Z"/>
  <path class="cls-5" d="M13.18,13.15c-.13.11-.19.31-.19.31s-.1.37-.04.8c0,0,.01.1.07.24.04.1.06.13.1.14.04.02.09,0,.15-.01.05-.02.1-.03.13-.06.06-.06.04-.2-.03-.33-.06-.1-.12-.19-.19-.29-.05-.07-.06-.14-.06-.18-.01-.16.09-.23.14-.51.02-.1.02-.15,0-.16,0,0-.03,0-.07.03Z"/>
  <path class="cls-5" d="M8.61,13.19c-.13.11-.19.31-.19.31s-.1.37-.04.8c0,0,.01.1.07.24.04.1.06.13.1.14.04.02.09,0,.15-.01.05-.02.1-.03.13-.06.06-.06.04-.2-.03-.33-.06-.1-.12-.19-.19-.29-.05-.07-.06-.14-.06-.18-.01-.16.09-.23.14-.51.02-.1.02-.15,0-.16,0,0-.03,0-.07.03Z"/>
  <path class="cls-5" d="M15.58,8.92c-.13.11-.19.31-.19.31s-.1.37-.04.8c0,0,.01.1.07.24.04.1.06.13.1.14.04.02.09,0,.15-.01.05-.02.1-.03.13-.06.06-.06.04-.2-.03-.33-.06-.1-.12-.19-.19-.29-.05-.07-.06-.14-.06-.18-.01-.16.09-.23.14-.51.02-.1.02-.15,0-.16,0,0-.03,0-.07.03Z"/>
</svg>